PathFileType  4	(X/Y/Z) C:\Users\antoi\Documents\MyRepositories\mobilecap\ResultsAnalysis
DataRate	CameraRate	NumFrames	NumMarkers	Units	OrigDataRate	OrigDataStartFrame	OrigNumFrames
100.0	100.0	4	51	mm	100.0	67	265
Frame#	Time	r_knee			r_shank_antsup			r_ankle			r_calc			r_5meta			r_toe			L_knee			L_shank_antsup			L_ankle			L_calc			L_5meta			L_toe			r_sh2			r_sh3			r_sh4			L_sh2			L_sh3			r_thigh1			r_thigh2			r_thigh3			r_thigh4			r_thigh5			L_thigh1			L_thigh2			L_thigh3			L_thigh4			r.ASIS			r.PSIS			L.ASIS			L.PSIS			C7			R_Shoulder			L_Shoulder			R_Sternum			L_Sternum			R_humerus			R_elbow_med			R_elbow_lat			R_forearm			R_wrist_radius			R_wrist_ulna			L_humerus			L_elbow_med			L_elbow_lat			L_forearm			L_wrist_radius			L_wrist_ulna			R_HJC			L_HJC			R_HJC_reg			L_HJC_reg			
		X1	Y1	Z1	X2	Y2	Z2	X3	Y3	Z3	X4	Y4	Z4	X5	Y5	Z5	X6	Y6	Z6	X7	Y7	Z7	X8	Y8	Z8	X9	Y9	Z9	X10	Y10	Z10	X11	Y11	Z11	X12	Y12	Z12	X13	Y13	Z13	X14	Y14	Z14	X15	Y15	Z15	X16	Y16	Z16	X17	Y17	Z17	X18	Y18	Z18	X19	Y19	Z19	X20	Y20	Z20	X21	Y21	Z21	X22	Y22	Z22	X23	Y23	Z23	X24	Y24	Z24	X25	Y25	Z25	X26	Y26	Z26	X27	Y27	Z27	X28	Y28	Z28	X29	Y29	Z29	X30	Y30	Z30	X31	Y31	Z31	X32	Y32	Z32	X33	Y33	Z33	X34	Y34	Z34	X35	Y35	Z35	X36	Y36	Z36	X37	Y37	Z37	X38	Y38	Z38	X39	Y39	Z39	X40	Y40	Z40	X41	Y41	Z41	X42	Y42	Z42	X43	Y43	Z43	X44	Y44	Z44	X45	Y45	Z45	X46	Y46	Z46	X47	Y47	Z47	X48	Y48	Z48	X49	Y49	Z49	X50	Y50	Z50	X51	Y51	Z51	

67	0.66000000	-984.71776	827.77622	-432.64325	-993.17582	701.12663	-441.06926	-1207.91593	432.30865	-425.42279	-1283.97449	407.06256	-467.12676	-1088.70678	345.25173	-385.37769	-1050.70992	363.35355	-460.17995	-1051.80903	812.18872	-764.33308	-1033.89969	696.33683	-738.86528	-1241.09041	410.12487	-727.06746	-1309.39150	383.92541	-676.92853	-1108.31845	344.07488	-759.72574	-1073.28290	364.84271	-689.84936	-1040.92954	595.91592	-459.17546	-1049.51571	716.97823	-387.70750	-1088.81520	605.91266	-389.42273	-1108.01797	722.68833	-784.23954	-1130.78633	604.00538	-790.32475	-941.20956	1073.73504	-462.82446	-918.48671	964.69118	-473.75171	-934.41118	931.06801	-417.19548	-1009.89735	1048.37938	-374.11455	-986.33832	933.64775	-397.60764	-1005.78440	1070.68051	-781.46122	-978.98340	935.21772	-767.76110	-1111.58440	1046.45709	-814.47508	-1085.07501	911.39650	-794.22602	-992.62640	1289.53957	-455.23937	-1172.59141	1401.72377	-529.31848	-1009.76898	1281.81391	-719.47468	-1181.58266	1399.97637	-630.16467	-917.72532	1832.38709	-594.03001	-862.46194	1737.40852	-408.06275	-864.91968	1751.20210	-771.48060	-817.34429	1702.55073	-572.47648	-821.31747	1700.03487	-617.77546	-924.67602	1579.98807	-330.66342	-1111.81716	1434.27056	-346.27690	-1071.65429	1440.59924	-275.60285	-1031.52801	1269.21948	-276.44889	-1037.12031	1146.70047	-272.28338	-1067.03972	1146.16333	-243.86082	-933.39293	1593.89696	-859.46723	-1107.48098	1447.13631	-827.08059	-1075.20206	1450.56732	-902.31655	-1010.11802	1294.87523	-884.90668	-997.92303	1179.69555	-907.30159	-1033.71517	1177.14559	-936.70262	-1102.35492	1248.90343	-482.41886	-1118.27647	1232.23022	-694.56188	-1092.46819	1245.05973	-483.40765	-1107.99223	1242.04153	-657.52673	
68	0.67000000	-977.72479	825.03181	-434.08422	-987.65251	698.23059	-443.21062	-1206.46685	433.72946	-426.21813	-1282.94742	409.08937	-467.88777	-1088.23207	345.89751	-385.79031	-1050.13705	363.35557	-460.44680	-1044.23392	809.31433	-765.17539	-1027.22296	693.55001	-739.57930	-1239.98437	411.19106	-727.23262	-1308.73191	385.59460	-676.99652	-1108.16911	343.99728	-759.73804	-1072.85931	364.45591	-689.95909	-1036.77651	594.05689	-460.60587	-1042.96631	715.07364	-389.30675	-1084.10682	604.87289	-390.58604	-1101.07160	720.80213	-785.01338	-1125.82065	602.62742	-790.87510	-937.00417	1071.63584	-463.29764	-913.10042	962.53640	-474.89287	-927.93012	928.53511	-418.05348	-1005.34610	1045.12394	-374.67925	-980.37620	930.75361	-398.53557	-1001.52269	1068.51533	-783.02109	-972.74054	933.36443	-769.32524	-1107.35579	1042.92078	-815.67989	-1078.68778	908.02695	-794.81102	-989.92929	1285.19693	-455.40154	-1169.61022	1398.09736	-529.35601	-1007.58061	1277.50820	-719.37298	-1178.79013	1396.46449	-630.27701	-912.55938	1827.42227	-594.55606	-857.19343	1732.36461	-408.60977	-860.18595	1746.00959	-771.90321	-812.53792	1697.26996	-573.32252	-816.50246	1694.60304	-618.19131	-919.35787	1575.05230	-331.18944	-1106.34184	1429.56455	-345.98859	-1066.12453	1435.77886	-275.28839	-1025.82981	1264.45439	-276.66359	-1031.22215	1141.93228	-272.68170	-1061.00979	1141.07608	-244.33147	-928.75443	1588.98528	-860.03615	-1102.88401	1442.28164	-827.80346	-1070.64182	1445.86838	-902.86744	-1004.03501	1290.75371	-885.14051	-990.49522	1175.73281	-907.75430	-1026.35248	1172.72926	-937.08368	-1099.97380	1245.06837	-482.40492	-1116.19677	1228.34601	-694.52101	-1089.97443	1241.05297	-483.39264	-1105.79597	1238.23755	-657.33592	
69	0.68000000	-970.55793	822.13729	-435.28580	-981.77582	695.34916	-445.21547	-1204.92317	435.19254	-426.95990	-1281.85818	411.16131	-468.72422	-1087.80655	346.61257	-386.26745	-1049.47253	363.33242	-460.77772	-1036.48052	806.38965	-766.04383	-1020.54303	690.63327	-740.30438	-1238.86319	412.37341	-727.58536	-1308.14880	387.12136	-676.70501	-1108.02891	343.84708	-759.78659	-1072.42165	364.06266	-690.24228	-1032.52327	592.11343	-462.16453	-1036.39448	713.12840	-390.98062	-1079.36982	603.62462	-391.89500	-1094.08616	718.76834	-785.59232	-1120.82725	601.36571	-791.71467	-932.57367	1069.26086	-463.60252	-907.22178	960.45731	-475.45695	-921.77334	926.08213	-418.70538	-1000.62749	1041.63933	-374.93895	-974.37692	927.60617	-399.49205	-996.08072	1066.07271	-783.86619	-966.26560	931.37937	-770.68682	-1102.61478	1039.11652	-816.07113	-1072.14302	904.54805	-795.43288	-987.39780	1280.61183	-455.72615	-1166.60948	1394.20908	-529.33434	-1005.53857	1272.98852	-718.88711	-1175.90163	1392.64394	-630.17900	-907.52345	1822.30708	-595.09700	-851.98846	1727.20831	-409.15515	-855.51162	1740.69072	-772.35442	-807.72096	1691.95679	-573.93261	-811.80737	1689.14334	-618.69017	-914.02943	1569.89658	-331.70760	-1101.40389	1424.42734	-345.48800	-1060.49113	1430.76384	-275.04195	-1019.96888	1259.44540	-276.88296	-1025.09611	1137.05736	-273.00698	-1054.68142	1135.88518	-244.25362	-924.25893	1584.02250	-860.55512	-1098.19293	1437.22452	-828.46156	-1066.08406	1440.94304	-903.38593	-997.45938	1286.51165	-885.73700	-982.75858	1171.59512	-908.07870	-1018.63636	1168.07716	-937.27015	-1097.66556	1240.98124	-482.26791	-1114.20876	1224.21780	-694.35609	-1087.59626	1237.00722	-483.49560	-1103.57562	1234.31612	-656.91147	
70	0.69000000	-963.25439	819.18641	-436.29821	-975.57247	692.57288	-446.83135	-1203.29655	436.73844	-427.63004	-1280.78154	413.36349	-469.53432	-1087.40707	347.36379	-386.63064	-1048.82270	363.27712	-461.23275	-1028.70650	803.44280	-766.83642	-1013.88648	687.53957	-740.89299	-1237.69367	413.67446	-727.85839	-1307.58027	388.75179	-676.12720	-1107.89472	343.66149	-759.81446	-1071.99966	363.69027	-690.49624	-1028.17045	590.18018	-463.76634	-1029.78098	711.06613	-392.42267	-1074.68744	602.24599	-393.17084	-1086.95848	716.71418	-786.16527	-1115.76376	600.16142	-792.42830	-927.82847	1066.63853	-463.78700	-900.94120	958.41184	-475.92533	-915.76318	923.32720	-419.73083	-995.64323	1037.99587	-375.13617	-968.21615	924.23524	-400.36687	-989.50802	1063.62454	-783.87629	-959.67472	929.24307	-771.98956	-1097.72608	1035.26290	-816.20338	-1065.40818	901.19010	-796.42809	-984.80493	1275.90374	-456.18039	-1163.55995	1390.12025	-529.28936	-1003.23731	1268.40446	-718.69601	-1172.90117	1388.57410	-630.10400	-902.70196	1817.04649	-595.68832	-846.94744	1721.98651	-409.73177	-850.87894	1735.35970	-773.00238	-802.96652	1686.49511	-574.37075	-807.26894	1683.71684	-619.42990	-908.69040	1564.67670	-332.16223	-1096.38482	1418.94310	-345.00062	-1054.73447	1425.46894	-274.88721	-1013.90644	1254.23179	-276.98175	-1018.77836	1132.04232	-273.28418	-1048.11177	1130.78056	-243.94448	-919.82536	1579.00315	-861.08171	-1093.40170	1431.95758	-829.12605	-1061.48224	1435.80408	-904.09717	-990.53089	1282.08741	-886.47676	-974.71549	1167.43025	-908.39324	-1010.53762	1163.23548	-937.26492	-1095.17468	1236.66030	-482.29851	-1112.00701	1219.98106	-694.37074	-1085.12928	1232.83947	-483.80039	-1101.15889	1230.18644	-656.79618	
